# xmcd
#
# Track frame offsets: 
#        150
#        17797
#        40920
#        55992
#        73777
#        90695
#        103732
#        120512
#        137382
#        154770
#        169307
#        183342
#        197390
#
# Disc length: 2935 seconds
#
# Revision: 1
# Processed by: cddbd v1.5.2PL0 Copyright (c) Steve Scherf et al.
# Submitted via: ExactAudioCopy v1.0b3
#
DISCID=ab0b750d
DTITLE=Various Artist - Back to the Big Easy - Music from New Orleans
DYEAR=1999
DGENRE=R&B
TTITLE0=Zydeco Hounds - What's Shakin' on the Bayou
TTITLE1=Luther Kent - Trick Bag
TTITLE2=Clarence 'Gatemouth' Brown - Loup Garou
TTITLE3=Irma Thomas - Princess Lala
TTITLE4=Raful Neal - Pride and Joy
TTITLE5=Major Handy - Te Ni Ne Na Nu
TTITLE6=Bobby Charles - See Ya Later, Alligator
TTITLE7=Clifton Chenier - I'm a Hog for You
TTITLE8=Hoyt Garrick - New Orleans Ladies
TTITLE9=Duke Bardwell - Bayou Country
TTITLE10=John Fred - I Miss Ya'll
TTITLE11=Coteau - Bayou Teche
TTITLE12=Gary Vincent - Wayne Carson - Christmas in the Swamp
EXTD=
EXTT0=
EXTT1=
EXTT2=
EXTT3=
EXTT4=
EXTT5=
EXTT6=
EXTT7=
EXTT8=
EXTT9=
EXTT10=
EXTT11=
EXTT12=
PLAYORDER=
